# xmcd
#
# Track frame offsets:
#	150
#	17585
#	35017
#	51606
#	70946
#	89290
#	108731
#	124794
#	142842
#	164237
#	177904
#	194737
#	210657
#	228204
#	242417
#	262712
#	279255
#	294245
#	307901
#	324253
#
# Disc length: 4458 seconds
#
# Revision: 1
# Processed by: cddbd v1.5PL3 Copyright (c) Steve Scherf et al.
# Submitted via: CDex 1.50Beta5
#
DISCID=1c116814
DTITLE=ちあきなおみ - コレクション2/6
DYEAR=1900
DGENRE=Pop -> Japanese Pop
TTITLE0=さだめ川
TTITLE1=恋挽歌
TTITLE2=女どうし
TTITLE3=酒場川
TTITLE4=ルージュ
TTITLE5=夜へ急ぐ人
TTITLE6=あまぐも
TTITLE7=矢切の渡し
TTITLE8=Again
TTITLE9=星影の小径
TTITLE10=かなしい唇
TTITLE11=愛の荒野
TTITLE12=海郷
TTITLE13=帰っておいで
TTITLE14=海のそばで殺された夢
TTITLE15=視角い故里
TTITLE16=勇気を出して
TTITLE17=Epilogue
TTITLE18=Between Stage
TTITLE19=さとうきび畑
EXTD=
EXTT0=
EXTT1=
EXTT2=
EXTT3=
EXTT4=
EXTT5=
EXTT6=
EXTT7=
EXTT8=
EXTT9=
EXTT10=
EXTT11=
EXTT12=
EXTT13=
EXTT14=
EXTT15=
EXTT16=
EXTT17=
EXTT18=
EXTT19=
PLAYORDER=
